<svg version="1" xmlns="http://www.w3.org/2000/svg" width="933.333" height="933.333" viewBox="0 0 700.000000 700.000000"><path d="M291.5 88.3c-.9.4-14.3 13.6-29.9 29.2l-28.3 28.4.1 29 .1 29.1H231c-1.4 0-29.7.2-63 .3-33.3.2-62.1.7-64 1.1-13.4 3-27.6 12.7-35.6 24.6-3.8 5.5-7.9 15.8-9.2 22.6-.9 5.3-.9 163.4.1 166.9.3 1.1.8 3.3 1.3 5 2.6 10.6 11 22.6 21.4 30.5 2.5 1.8 4.7 3.6 5 3.8.2.2.5 23.1.6 51 .1 55.6.2 57.8 5.9 69.7 7.6 15.8 21.9 27.3 39.5 31.6 7.8 1.9 421 2.1 431.2.3 8.6-1.6 13.1-3.2 19.3-6.9 10.8-6.4 19-15.6 23.9-26.8 4.8-10.9 5-13.1 5.1-67.6v-51.4l3-2.1c7.5-5.2 16.3-15.3 19.9-22.8 6.3-13.1 6.3-12.8 6.1-101.3-.2-79.7-.2-80-2.4-86.8-5.4-16.5-16.8-29.4-32.4-36.5-10.3-4.8-14.1-5-78.6-5.1-33.3 0-60.8-.1-61.1-.1-.3 0-.4-13.1-.4-29l.1-29-29.2-29.3-29.2-29.2h-57.7c-31.7-.1-58.3.3-59.1.8zm103 57.6l14 .1-.1 28.5c0 15.7-.3 28.7-.6 29.1-1.1 1-115 .6-115.7-.4-.3-.6-.6-13.5-.5-28.9v-27.8l2.9-.5c1.6-.3 21.6-.4 44.4-.3 22.9.1 47.9.2 55.6.2zM583 263.1c.4.6.5 137.6.1 143.9-.1 1.3-8.7 1.5-71.9 1.4-39.5 0-72.3-.3-72.8-.7-.5-.3-.9-18.3-.9-43.6V321l-58-.2c-31.9-.2-71.3-.1-87.5.2l-29.5.5v43.2c0 28.4-.3 43.3-1 43.4-.5 0-33.3.1-72.7.2-47.2.1-71.9-.1-72.1-.8-.2-.9 0-135.6.2-142.5l.1-2.5h232.8c128-.1 232.9.2 233.2.6zM379 408.2v29.3h-58V379h58v29.2zm-118 58.7c1.3.1 1.6 2.3 1.5 14.3v14.3h175l.1-14c.1-7.7.2-14.2.3-14.5 0-.3 26.2-.5 58.1-.5h58l.1 16.7c.1 20.6.1 20.6 0 48.3L554 554H146l-.1-6.8c-.2-26.6.1-79.3.4-79.9.4-.6 104.9-.9 114.7-.4z"/></svg>